<svg width="20" height="20" viewBox="0 0 20 20" fill="none" xmlns="http://www.w3.org/2000/svg">
<g id="Frame">
<path id="Vector" d="M15.8334 10.8334H6.52508L10.5917 14.9C10.9167 15.225 10.9167 15.7584 10.5917 16.0834C10.2667 16.4084 9.74175 16.4084 9.41675 16.0834L3.92508 10.5917C3.84783 10.5146 3.78654 10.423 3.74472 10.3222C3.7029 10.2214 3.68138 10.1133 3.68138 10.0042C3.68138 9.89505 3.7029 9.78698 3.74472 9.68617C3.78654 9.58536 3.84783 9.49379 3.92508 9.41669L9.40841 3.91669C9.48557 3.83954 9.57716 3.77834 9.67796 3.73658C9.77876 3.69483 9.88681 3.67334 9.99591 3.67334C10.105 3.67334 10.2131 3.69483 10.3139 3.73658C10.4147 3.77834 10.5063 3.83954 10.5834 3.91669C10.6606 3.99384 10.7218 4.08543 10.7635 4.18624C10.8053 4.28704 10.8268 4.39508 10.8268 4.50419C10.8268 4.6133 10.8053 4.72134 10.7635 4.82214C10.7218 4.92295 10.6606 5.01454 10.5834 5.09169L6.52508 9.16669H15.8334C16.2917 9.16669 16.6667 9.54169 16.6667 10C16.6667 10.4584 16.2917 10.8334 15.8334 10.8334Z" fill="#222222"/>
</g>
</svg>
