<svg width="24" height="24" viewBox="0 0 24 24" fill="none" xmlns="http://www.w3.org/2000/svg">
<g id="SolarCloseSquareOutline 3">
<g id="Group">
<path id="Vector" d="M7.78121 5.5112C7.47674 5.22749 7.07404 5.07304 6.65794 5.08038C6.24184 5.08772 5.84483 5.25628 5.55056 5.55056C5.25628 5.84483 5.08772 6.24184 5.08038 6.65794C5.07304 7.07404 5.22749 7.47674 5.5112 7.78121L9.73 12L5.5112 16.2188C5.3534 16.3659 5.22683 16.5432 5.13904 16.7402C5.05126 16.9372 5.00405 17.1499 5.00025 17.3656C4.99644 17.5812 5.03612 17.7954 5.1169 17.9954C5.19768 18.1954 5.31791 18.3771 5.47043 18.5296C5.62295 18.6821 5.80462 18.8024 6.00461 18.8831C6.2046 18.9639 6.41882 19.0036 6.63448 18.9998C6.85013 18.996 7.06282 18.9488 7.25983 18.861C7.45685 18.7732 7.63417 18.6466 7.78121 18.4888L12 14.27L16.2188 18.4888C16.5233 18.7725 16.926 18.927 17.3421 18.9196C17.7582 18.9123 18.1552 18.7437 18.4495 18.4495C18.7437 18.1552 18.9123 17.7582 18.9196 17.3421C18.927 16.926 18.7725 16.5233 18.4888 16.2188L14.27 12L18.4888 7.78121C18.6466 7.63417 18.7732 7.45685 18.861 7.25983C18.9488 7.06282 18.996 6.85013 18.9998 6.63448C19.0036 6.41882 18.9639 6.2046 18.8831 6.00461C18.8024 5.80462 18.6821 5.62295 18.5296 5.47043C18.3771 5.31791 18.1954 5.19768 17.9954 5.1169C17.7954 5.03612 17.5812 4.99644 17.3656 5.00025C17.1499 5.00405 16.9372 5.05126 16.7402 5.13904C16.5432 5.22683 16.3659 5.3534 16.2188 5.5112L12 9.73L7.78121 5.5112Z" fill="white"/>
</g>
</g>
</svg>
