<svg width="16" height="16" viewBox="0 0 16 16" fill="none" xmlns="http://www.w3.org/2000/svg">
<g id="Frame">
<path id="Vector" d="M13.1438 3.52126L8.14375 2.02126C8.0691 1.99885 7.99025 1.99421 7.91348 2.0077C7.83672 2.02118 7.76417 2.05243 7.70162 2.09894C7.63908 2.14545 7.58828 2.20594 7.55327 2.27558C7.51827 2.34521 7.50002 2.42207 7.5 2.50001V9.26626C6.98794 8.80826 6.3342 8.53989 5.64804 8.50599C4.96188 8.47209 4.28487 8.67471 3.73016 9.08001C3.17545 9.4853 2.77664 10.0687 2.6004 10.7327C2.42416 11.3967 2.48115 12.1011 2.76186 12.7281C3.04257 13.3552 3.52998 13.8669 4.14264 14.1777C4.7553 14.4885 5.45608 14.5797 6.12787 14.4359C6.79965 14.2921 7.40174 13.9221 7.8335 13.3877C8.26526 12.8534 8.50053 12.187 8.5 11.5V3.17189L12.8563 4.47876C12.9196 4.4994 12.9865 4.50716 13.0529 4.5016C13.1193 4.49603 13.1839 4.47725 13.2429 4.44636C13.302 4.41546 13.3542 4.37307 13.3967 4.32169C13.4391 4.2703 13.4708 4.21096 13.49 4.14713C13.5091 4.08331 13.5154 4.0163 13.5083 3.95005C13.5012 3.88379 13.4809 3.81962 13.4486 3.76131C13.4164 3.703 13.3728 3.65173 13.3204 3.61051C13.2681 3.56928 13.208 3.53894 13.1438 3.52126Z" fill="black"/>
</g>
</svg>
